<svg width="369" height="376" viewBox="0 0 369 376" fill="none" xmlns="http://www.w3.org/2000/svg">
<g filter="url(#filter0_dddd_42_134)">
<rect x="86.4254" y="76.4254" width="193.149" height="193.149" rx="35.3114" fill="white" stroke="#D1D1D1" stroke-width="0.850877"/>
<path d="M228.525 215.296C176.489 238.909 144.847 217.784 124.579 204.934C123.325 204.125 121.152 205.056 122.983 207.238C129.66 215.641 151.673 236.003 180.881 236.535C210.108 237.067 227.786 221.436 230.012 218.694C232.223 215.974 230.724 214.425 228.524 215.296L228.525 215.296ZM243.159 207.559C241.807 205.73 234.774 205.265 230.335 205.729C225.888 206.176 219.18 208.766 219.729 210.405C220.015 211.02 220.627 210.758 223.679 210.539C226.741 210.29 235.322 209.365 237.063 211.73C238.813 214.111 234.086 225.214 233.227 227.003C232.396 228.793 233.491 229.278 235.012 228.104C236.512 226.93 239.246 223.868 241.122 219.499C242.986 215.106 244.187 208.952 243.159 207.559L243.159 207.559Z" fill="#FF9900"/>
<path fill-rule="evenodd" clip-rule="evenodd" d="M194.747 164.566C194.629 171.009 194.694 176.384 191.334 182.045C188.621 186.649 184.406 189.434 179.755 189.349C173.406 189.234 169.796 184.329 169.926 177.189C170.183 163.095 182.857 160.767 194.812 160.985L194.747 164.566ZM210.688 205.174C209.577 206.131 207.994 206.172 206.773 205.498C201.368 200.84 200.429 198.706 197.485 194.302C188.247 203.393 181.777 206.044 170.009 205.829C156.102 205.576 145.42 196.797 145.733 179.61C145.978 166.191 153.424 157.183 163.854 152.907C172.903 149.116 185.452 148.647 195.053 147.729L195.092 145.589C195.164 141.658 195.551 137.013 193.31 133.575C191.342 130.492 187.504 129.165 184.109 129.104C177.806 128.989 172.119 132.119 170.625 138.792C170.319 140.276 169.199 141.721 167.71 141.763L151.693 139.751C150.35 139.423 148.882 138.303 149.292 136.24C153.344 116.865 171.009 111.323 186.73 111.61C194.777 111.756 205.25 114.088 211.489 120.297C219.399 127.955 218.449 137.965 218.25 148.872L217.781 174.641C217.64 182.385 220.787 185.839 223.734 190.081C224.777 191.588 224.977 193.384 223.608 194.475C220.184 197.228 214.089 202.351 210.733 205.222L210.687 205.174" fill="#0A0A0A"/>
</g>
<rect x="0.5" y="35.5" width="144" height="71" rx="11.5" fill="white"/>
<rect x="0.5" y="35.5" width="144" height="71" rx="11.5" stroke="#D1D1D1"/>
<path d="M20.326 57L16.434 47.284H17.862L21.068 55.502H20.55L23.784 47.284H25.198L21.278 57H20.326ZM28.2755 57.14C27.6128 57.14 27.0155 56.9907 26.4835 56.692C25.9515 56.384 25.5315 55.9687 25.2235 55.446C24.9155 54.9233 24.7615 54.3307 24.7615 53.668C24.7615 53.0147 24.9108 52.4267 25.2095 51.904C25.5175 51.3813 25.9282 50.9707 26.4415 50.672C26.9642 50.364 27.5475 50.21 28.1915 50.21C28.8075 50.21 29.3488 50.35 29.8155 50.63C30.2915 50.91 30.6602 51.2973 30.9215 51.792C31.1922 52.2867 31.3275 52.8467 31.3275 53.472C31.3275 53.5653 31.3228 53.668 31.3135 53.78C31.3042 53.8827 31.2855 54.004 31.2575 54.144H25.6435V53.094H30.5855L30.1235 53.5C30.1235 53.052 30.0442 52.674 29.8855 52.366C29.7268 52.0487 29.5028 51.806 29.2135 51.638C28.9242 51.4607 28.5742 51.372 28.1635 51.372C27.7342 51.372 27.3562 51.4653 27.0295 51.652C26.7028 51.8387 26.4508 52.1 26.2735 52.436C26.0962 52.772 26.0075 53.1687 26.0075 53.626C26.0075 54.0927 26.1008 54.5033 26.2875 54.858C26.4742 55.2033 26.7402 55.474 27.0855 55.67C27.4308 55.8567 27.8275 55.95 28.2755 55.95C28.6488 55.95 28.9895 55.8847 29.2975 55.754C29.6148 55.6233 29.8855 55.4273 30.1095 55.166L30.9215 55.992C30.6042 56.3653 30.2122 56.65 29.7455 56.846C29.2882 57.042 28.7982 57.14 28.2755 57.14ZM37.4053 57V53.122C37.4053 52.618 37.2467 52.2027 36.9293 51.876C36.612 51.5493 36.2013 51.386 35.6973 51.386C35.3613 51.386 35.0627 51.4607 34.8013 51.61C34.54 51.7593 34.3347 51.9647 34.1853 52.226C34.036 52.4873 33.9613 52.786 33.9613 53.122L33.4433 52.828C33.4433 52.324 33.5553 51.876 33.7793 51.484C34.0033 51.092 34.316 50.784 34.7173 50.56C35.1187 50.3267 35.5713 50.21 36.0753 50.21C36.5793 50.21 37.0227 50.336 37.4053 50.588C37.7973 50.84 38.1053 51.1713 38.3293 51.582C38.5533 51.9833 38.6653 52.4127 38.6653 52.87V57H37.4053ZM32.7013 57V50.35H33.9613V57H32.7013ZM41.3112 57V47.564H42.5712V57H41.3112ZM39.6732 51.498V50.35H44.2092V51.498H39.6732ZM48.0665 57.14C47.4598 57.14 46.9091 56.9907 46.4145 56.692C45.9198 56.384 45.5278 55.9687 45.2385 55.446C44.9585 54.9233 44.8185 54.3353 44.8185 53.682C44.8185 53.0287 44.9585 52.4407 45.2385 51.918C45.5278 51.3953 45.9151 50.98 46.4005 50.672C46.8951 50.364 47.4505 50.21 48.0665 50.21C48.5705 50.21 49.0185 50.3173 49.4105 50.532C49.8118 50.7373 50.1338 51.0267 50.3765 51.4C50.6191 51.764 50.7545 52.1887 50.7825 52.674V54.676C50.7545 55.152 50.6191 55.5767 50.3765 55.95C50.1431 56.3233 49.8258 56.6173 49.4245 56.832C49.0325 57.0373 48.5798 57.14 48.0665 57.14ZM48.2765 55.95C48.9018 55.95 49.4058 55.74 49.7885 55.32C50.1711 54.8907 50.3625 54.3447 50.3625 53.682C50.3625 53.2247 50.2738 52.828 50.0965 52.492C49.9285 52.1467 49.6858 51.8807 49.3685 51.694C49.0511 51.498 48.6825 51.4 48.2625 51.4C47.8425 51.4 47.4691 51.498 47.1425 51.694C46.8251 51.89 46.5731 52.1607 46.3865 52.506C46.2091 52.842 46.1205 53.2293 46.1205 53.668C46.1205 54.116 46.2091 54.5127 46.3865 54.858C46.5731 55.194 46.8298 55.46 47.1565 55.656C47.4831 55.852 47.8565 55.95 48.2765 55.95ZM50.2785 57V55.208L50.5165 53.584L50.2785 51.974V50.35H51.5525V57H50.2785ZM55.5009 57.14C55.1276 57.14 54.7729 57.0933 54.4369 57C54.1102 56.8973 53.8069 56.7573 53.5269 56.58C53.2469 56.3933 53.0042 56.174 52.7989 55.922L53.6109 55.11C53.8536 55.4087 54.1336 55.6327 54.4509 55.782C54.7682 55.922 55.1229 55.992 55.5149 55.992C55.9069 55.992 56.2102 55.9267 56.4249 55.796C56.6396 55.656 56.7469 55.4647 56.7469 55.222C56.7469 54.9793 56.6582 54.7927 56.4809 54.662C56.3129 54.522 56.0936 54.41 55.8229 54.326C55.5522 54.2327 55.2629 54.144 54.9549 54.06C54.6562 53.9667 54.3716 53.85 54.1009 53.71C53.8302 53.57 53.6062 53.3787 53.4289 53.136C53.2609 52.8933 53.1769 52.5713 53.1769 52.17C53.1769 51.7687 53.2749 51.4233 53.4709 51.134C53.6669 50.8353 53.9376 50.6067 54.2829 50.448C54.6376 50.2893 55.0622 50.21 55.5569 50.21C56.0796 50.21 56.5416 50.3033 56.9429 50.49C57.3536 50.6673 57.6896 50.938 57.9509 51.302L57.1389 52.114C56.9522 51.8713 56.7189 51.6847 56.4389 51.554C56.1682 51.4233 55.8602 51.358 55.5149 51.358C55.1509 51.358 54.8709 51.4233 54.6749 51.554C54.4882 51.6753 54.3949 51.848 54.3949 52.072C54.3949 52.296 54.4789 52.4687 54.6469 52.59C54.8149 52.7113 55.0342 52.814 55.3049 52.898C55.5849 52.982 55.8742 53.0707 56.1729 53.164C56.4716 53.248 56.7562 53.3647 57.0269 53.514C57.2976 53.6633 57.5169 53.864 57.6849 54.116C57.8622 54.368 57.9509 54.6993 57.9509 55.11C57.9509 55.7353 57.7269 56.23 57.2789 56.594C56.8402 56.958 56.2476 57.14 55.5009 57.14ZM65.0876 57.14C64.4716 57.14 63.9209 56.9907 63.4356 56.692C62.9503 56.384 62.5629 55.9687 62.2736 55.446C61.9936 54.9233 61.8536 54.3353 61.8536 53.682C61.8536 53.0287 61.9936 52.4407 62.2736 51.918C62.5629 51.3953 62.9503 50.98 63.4356 50.672C63.9209 50.364 64.4716 50.21 65.0876 50.21C65.5823 50.21 66.0303 50.3173 66.4316 50.532C66.8329 50.7373 67.1549 51.0267 67.3976 51.4C67.6496 51.764 67.7896 52.1887 67.8176 52.674V54.676C67.7896 55.152 67.6543 55.5767 67.4116 55.95C67.1689 56.3233 66.8469 56.6173 66.4456 56.832C66.0443 57.0373 65.5916 57.14 65.0876 57.14ZM65.2976 55.95C65.7176 55.95 66.0816 55.852 66.3896 55.656C66.7069 55.46 66.9543 55.194 67.1316 54.858C67.3089 54.5127 67.3976 54.1207 67.3976 53.682C67.3976 53.2247 67.3043 52.828 67.1176 52.492C66.9403 52.156 66.6929 51.89 66.3756 51.694C66.0676 51.498 65.7036 51.4 65.2836 51.4C64.8636 51.4 64.4949 51.498 64.1776 51.694C63.8603 51.89 63.6083 52.1607 63.4216 52.506C63.2443 52.842 63.1556 53.2293 63.1556 53.668C63.1556 54.116 63.2443 54.5127 63.4216 54.858C63.6083 55.194 63.8603 55.46 64.1776 55.656C64.5043 55.852 64.8776 55.95 65.2976 55.95ZM68.5876 57H67.3136V55.208L67.5516 53.584L67.3136 51.974V47.004H68.5876V57ZM70.436 57V50.35H71.696V57H70.436ZM71.066 49.02C70.8327 49.02 70.6414 48.9453 70.492 48.796C70.3427 48.6373 70.268 48.4413 70.268 48.208C70.268 47.984 70.3427 47.7973 70.492 47.648C70.6414 47.4893 70.8327 47.41 71.066 47.41C71.2994 47.41 71.4907 47.4893 71.64 47.648C71.7894 47.7973 71.864 47.984 71.864 48.208C71.864 48.4413 71.7894 48.6373 71.64 48.796C71.4907 48.9453 71.2994 49.02 71.066 49.02ZM76.3809 57.14C75.7742 57.14 75.2236 56.9907 74.7289 56.692C74.2342 56.384 73.8422 55.9687 73.5529 55.446C73.2729 54.9233 73.1329 54.3353 73.1329 53.682C73.1329 53.0287 73.2729 52.4407 73.5529 51.918C73.8422 51.3953 74.2296 50.98 74.7149 50.672C75.2096 50.364 75.7649 50.21 76.3809 50.21C76.8849 50.21 77.3329 50.3173 77.7249 50.532C78.1262 50.7373 78.4482 51.0267 78.6909 51.4C78.9336 51.764 79.0689 52.1887 79.0969 52.674V54.676C79.0689 55.152 78.9336 55.5767 78.6909 55.95C78.4576 56.3233 78.1402 56.6173 77.7389 56.832C77.3469 57.0373 76.8942 57.14 76.3809 57.14ZM76.5909 55.95C77.2162 55.95 77.7202 55.74 78.1029 55.32C78.4856 54.8907 78.6769 54.3447 78.6769 53.682C78.6769 53.2247 78.5882 52.828 78.4109 52.492C78.2429 52.1467 78.0002 51.8807 77.6829 51.694C77.3656 51.498 76.9969 51.4 76.5769 51.4C76.1569 51.4 75.7836 51.498 75.4569 51.694C75.1396 51.89 74.8876 52.1607 74.7009 52.506C74.5236 52.842 74.4349 53.2293 74.4349 53.668C74.4349 54.116 74.5236 54.5127 74.7009 54.858C74.8876 55.194 75.1442 55.46 75.4709 55.656C75.7976 55.852 76.1709 55.95 76.5909 55.95ZM78.5929 57V55.208L78.8309 53.584L78.5929 51.974V50.35H79.8669V57H78.5929ZM81.7013 57V50.35H82.9613V57H81.7013ZM82.9613 53.206L82.4853 52.996C82.4853 52.1467 82.6813 51.47 83.0733 50.966C83.4653 50.462 84.03 50.21 84.7673 50.21C85.1033 50.21 85.4067 50.2707 85.6773 50.392C85.948 50.504 86.2 50.6953 86.4333 50.966L85.6073 51.82C85.4673 51.6707 85.3133 51.5633 85.1453 51.498C84.9773 51.4327 84.7813 51.4 84.5573 51.4C84.0907 51.4 83.708 51.5493 83.4093 51.848C83.1107 52.1467 82.9613 52.5993 82.9613 53.206ZM87.3345 57V50.35H88.5945V57H87.3345ZM87.9645 49.02C87.7312 49.02 87.5398 48.9453 87.3905 48.796C87.2412 48.6373 87.1665 48.4413 87.1665 48.208C87.1665 47.984 87.2412 47.7973 87.3905 47.648C87.5398 47.4893 87.7312 47.41 87.9645 47.41C88.1978 47.41 88.3892 47.4893 88.5385 47.648C88.6878 47.7973 88.7625 47.984 88.7625 48.208C88.7625 48.4413 88.6878 48.6373 88.5385 48.796C88.3892 48.9453 88.1978 49.02 87.9645 49.02ZM93.2793 57.14C92.6727 57.14 92.122 56.9907 91.6273 56.692C91.1327 56.384 90.7407 55.9687 90.4513 55.446C90.1713 54.9233 90.0313 54.3353 90.0313 53.682C90.0313 53.0287 90.1713 52.4407 90.4513 51.918C90.7407 51.3953 91.128 50.98 91.6133 50.672C92.108 50.364 92.6633 50.21 93.2793 50.21C93.7833 50.21 94.2313 50.3173 94.6233 50.532C95.0247 50.7373 95.3467 51.0267 95.5893 51.4C95.832 51.764 95.9673 52.1887 95.9953 52.674V54.676C95.9673 55.152 95.832 55.5767 95.5893 55.95C95.356 56.3233 95.0387 56.6173 94.6373 56.832C94.2453 57.0373 93.7927 57.14 93.2793 57.14ZM93.4893 55.95C94.1147 55.95 94.6187 55.74 95.0013 55.32C95.384 54.8907 95.5753 54.3447 95.5753 53.682C95.5753 53.2247 95.4867 52.828 95.3093 52.492C95.1413 52.1467 94.8987 51.8807 94.5813 51.694C94.264 51.498 93.8953 51.4 93.4753 51.4C93.0553 51.4 92.682 51.498 92.3553 51.694C92.038 51.89 91.786 52.1607 91.5993 52.506C91.422 52.842 91.3333 53.2293 91.3333 53.668C91.3333 54.116 91.422 54.5127 91.5993 54.858C91.786 55.194 92.0427 55.46 92.3693 55.656C92.696 55.852 93.0693 55.95 93.4893 55.95ZM95.4913 57V55.208L95.7293 53.584L95.4913 51.974V50.35H96.7653V57H95.4913ZM100.714 57.14C100.34 57.14 99.9858 57.0933 99.6498 57C99.3231 56.8973 99.0198 56.7573 98.7398 56.58C98.4598 56.3933 98.2171 56.174 98.0118 55.922L98.8238 55.11C99.0664 55.4087 99.3464 55.6327 99.6638 55.782C99.9811 55.922 100.336 55.992 100.728 55.992C101.12 55.992 101.423 55.9267 101.638 55.796C101.852 55.656 101.96 55.4647 101.96 55.222C101.96 54.9793 101.871 54.7927 101.694 54.662C101.526 54.522 101.306 54.41 101.036 54.326C100.765 54.2327 100.476 54.144 100.168 54.06C99.8691 53.9667 99.5844 53.85 99.3138 53.71C99.0431 53.57 98.8191 53.3787 98.6418 53.136C98.4738 52.8933 98.3898 52.5713 98.3898 52.17C98.3898 51.7687 98.4878 51.4233 98.6838 51.134C98.8798 50.8353 99.1504 50.6067 99.4958 50.448C99.8504 50.2893 100.275 50.21 100.77 50.21C101.292 50.21 101.754 50.3033 102.156 50.49C102.566 50.6673 102.902 50.938 103.164 51.302L102.352 52.114C102.165 51.8713 101.932 51.6847 101.652 51.554C101.381 51.4233 101.073 51.358 100.728 51.358C100.364 51.358 100.084 51.4233 99.8878 51.554C99.7011 51.6753 99.6078 51.848 99.6078 52.072C99.6078 52.296 99.6918 52.4687 99.8598 52.59C100.028 52.7113 100.247 52.814 100.518 52.898C100.798 52.982 101.087 53.0707 101.386 53.164C101.684 53.248 101.969 53.3647 102.24 53.514C102.51 53.6633 102.73 53.864 102.898 54.116C103.075 54.368 103.164 54.6993 103.164 55.11C103.164 55.7353 102.94 56.23 102.492 56.594C102.053 56.958 101.46 57.14 100.714 57.14Z" fill="#6C6C6C"/>
<path d="M16.6 87.048L22.36 76.128H25.96L20.056 87.048H16.6ZM16.6 88.968V87.048L17.8 86.112H29.896V88.968H16.6ZM24.568 93V82.248H27.784V93H24.568ZM30.7797 87.048L36.5397 76.128H40.1397L34.2357 87.048H30.7797ZM30.7797 88.968V87.048L31.9797 86.112H44.0757V88.968H30.7797ZM38.7477 93V82.248H41.9637V93H38.7477ZM50.6401 93.24C49.5041 93.24 48.4641 93.04 47.5201 92.64C46.5761 92.224 45.7841 91.632 45.1441 90.864L47.3041 88.728C47.6241 89.208 48.0801 89.592 48.6721 89.88C49.2641 90.168 49.9041 90.312 50.5921 90.312C51.2321 90.312 51.7841 90.2 52.2481 89.976C52.7121 89.736 53.0721 89.408 53.3281 88.992C53.6001 88.56 53.7361 88.064 53.7361 87.504C53.7361 86.912 53.6001 86.408 53.3281 85.992C53.0721 85.576 52.6961 85.256 52.2001 85.032C51.7041 84.808 51.1121 84.696 50.4241 84.696C50.1201 84.696 49.8081 84.72 49.4881 84.768C49.1681 84.8 48.8961 84.856 48.6721 84.936L50.1121 83.112C50.5121 82.984 50.9041 82.88 51.2881 82.8C51.6881 82.704 52.0561 82.656 52.3921 82.656C53.2561 82.656 54.0321 82.864 54.7201 83.28C55.4241 83.68 55.9761 84.256 56.3761 85.008C56.7921 85.744 57.0001 86.616 57.0001 87.624C57.0001 88.744 56.7361 89.728 56.2081 90.576C55.6801 91.408 54.9361 92.064 53.9761 92.544C53.0321 93.008 51.9201 93.24 50.6401 93.24ZM48.6721 84.936V83.064L52.9921 78.048L56.7361 78L52.2721 83.112L48.6721 84.936ZM46.0801 78.96V76.128H56.7361V78L54.0721 78.96H46.0801Z" fill="#0A0A0A"/>
<rect x="101.318" y="70.3182" width="27.3636" height="27.3636" rx="7.31818" stroke="#E2E2E2" stroke-width="0.636364"/>
<path d="M121.364 80.8182L115.955 86.2273L112.773 83.0454L108.636 87.1818" stroke="#49AA5E" stroke-width="1.27273" stroke-linecap="round" stroke-linejoin="round"/>
<path d="M117.545 80.8182H121.364V84.6364" stroke="#49AA5E" stroke-width="1.27273" stroke-linecap="round" stroke-linejoin="round"/>
<rect x="140.5" y="258.5" width="228" height="67" rx="11.5" fill="white"/>
<rect x="140.5" y="258.5" width="228" height="67" rx="11.5" stroke="#D1D1D1"/>
<path d="M158.88 290L164.808 275.024H168.024L162.264 290H158.88ZM156.552 275.96V273.128H168.024V275.024L166.8 275.96H156.552ZM170.638 290.24C170.062 290.24 169.59 290.048 169.222 289.664C168.854 289.28 168.67 288.808 168.67 288.248C168.67 287.688 168.854 287.216 169.222 286.832C169.59 286.448 170.062 286.256 170.638 286.256C171.198 286.256 171.662 286.448 172.03 286.832C172.398 287.216 172.582 287.688 172.582 288.248C172.582 288.808 172.398 289.28 172.03 289.664C171.662 290.048 171.198 290.24 170.638 290.24ZM180.164 290.24C178.996 290.24 177.932 290.04 176.972 289.64C176.012 289.224 175.212 288.632 174.572 287.864L176.732 285.728C177.052 286.208 177.508 286.592 178.1 286.88C178.708 287.168 179.372 287.312 180.092 287.312C180.748 287.312 181.316 287.192 181.796 286.952C182.292 286.712 182.676 286.376 182.948 285.944C183.236 285.496 183.38 284.976 183.38 284.384C183.38 283.76 183.236 283.232 182.948 282.8C182.676 282.368 182.308 282.04 181.844 281.816C181.38 281.592 180.86 281.48 180.284 281.48C179.676 281.48 179.124 281.56 178.628 281.72C178.148 281.864 177.684 282.104 177.236 282.44L177.428 280.376C177.732 280.056 178.052 279.8 178.388 279.608C178.724 279.4 179.1 279.248 179.516 279.152C179.948 279.04 180.452 278.984 181.028 278.984C182.26 278.984 183.284 279.24 184.1 279.752C184.932 280.248 185.564 280.92 185.996 281.768C186.428 282.6 186.644 283.52 186.644 284.528C186.644 285.632 186.372 286.616 185.828 287.48C185.284 288.344 184.524 289.024 183.548 289.52C182.588 290 181.46 290.24 180.164 290.24ZM177.236 282.44L175.676 280.904L176.444 273.128H179.396L178.532 281.024L177.236 282.44ZM176.948 275.96L176.444 273.128H185.708V275.96H176.948ZM191.294 290V273.128H194.51V290H191.294ZM187.982 275.96V273.128H194.27V275.96H187.982ZM196.866 288.128L203.226 281.48C203.674 281 204.034 280.576 204.306 280.208C204.594 279.824 204.802 279.464 204.93 279.128C205.058 278.776 205.122 278.424 205.122 278.072C205.122 277.368 204.89 276.816 204.426 276.416C203.978 276.016 203.394 275.816 202.674 275.816C201.938 275.816 201.282 276.008 200.706 276.392C200.146 276.776 199.618 277.384 199.122 278.216L196.89 276.32C197.562 275.184 198.394 274.328 199.386 273.752C200.394 273.16 201.546 272.864 202.842 272.864C203.946 272.864 204.906 273.08 205.722 273.512C206.554 273.944 207.194 274.544 207.642 275.312C208.09 276.08 208.314 276.976 208.314 278C208.314 278.688 208.226 279.312 208.05 279.872C207.89 280.432 207.61 280.992 207.21 281.552C206.826 282.096 206.29 282.712 205.602 283.4L200.97 288.128H196.866ZM196.866 290V288.128L199.65 287.168H208.674V290H196.866Z" fill="#0A0A0A"/>
<path d="M215.179 290V281.672H216.307V290H215.179ZM215.947 290V288.968H220.723V290H215.947ZM215.947 286.232V285.248H220.327V286.232H215.947ZM215.947 282.704V281.672H220.663V282.704H215.947ZM225.377 290.12C224.761 290.12 224.209 289.984 223.721 289.712C223.241 289.432 222.861 289.052 222.581 288.572C222.301 288.084 222.161 287.532 222.161 286.916V281.672H223.289V286.892C223.289 287.332 223.381 287.712 223.565 288.032C223.749 288.352 223.997 288.6 224.309 288.776C224.629 288.952 224.985 289.04 225.377 289.04C225.785 289.04 226.141 288.952 226.445 288.776C226.757 288.6 227.001 288.352 227.177 288.032C227.361 287.712 227.453 287.336 227.453 286.904V281.672H228.593V286.928C228.593 287.544 228.453 288.092 228.173 288.572C227.893 289.052 227.513 289.432 227.033 289.712C226.553 289.984 226.001 290.12 225.377 290.12ZM231.205 286.376V285.428H233.461C233.949 285.428 234.325 285.304 234.589 285.056C234.853 284.808 234.985 284.472 234.985 284.048C234.985 283.648 234.853 283.316 234.589 283.052C234.333 282.788 233.961 282.656 233.473 282.656H231.205V281.672H233.509C234.037 281.672 234.497 281.776 234.889 281.984C235.281 282.184 235.581 282.46 235.789 282.812C236.005 283.164 236.113 283.568 236.113 284.024C236.113 284.496 236.005 284.908 235.789 285.26C235.581 285.612 235.281 285.888 234.889 286.088C234.497 286.28 234.037 286.376 233.509 286.376H231.205ZM230.449 290V281.672H231.577V290H230.449ZM235.249 290L232.225 286.268L233.293 285.896L236.677 290H235.249Z" fill="#828282"/>
<path d="M157.148 314V304.284H158.464V314H157.148ZM165.237 314V310.122C165.237 309.618 165.079 309.203 164.761 308.876C164.444 308.549 164.033 308.386 163.529 308.386C163.193 308.386 162.895 308.461 162.633 308.61C162.372 308.759 162.167 308.965 162.017 309.226C161.868 309.487 161.793 309.786 161.793 310.122L161.275 309.828C161.275 309.324 161.387 308.876 161.611 308.484C161.835 308.092 162.148 307.784 162.549 307.56C162.951 307.327 163.403 307.21 163.907 307.21C164.411 307.21 164.855 307.336 165.237 307.588C165.629 307.84 165.937 308.171 166.161 308.582C166.385 308.983 166.497 309.413 166.497 309.87V314H165.237ZM160.533 314V307.35H161.793V314H160.533ZM170.961 316.926C170.28 316.926 169.673 316.8 169.141 316.548C168.619 316.296 168.199 315.941 167.881 315.484L168.693 314.658C168.964 315.003 169.286 315.265 169.659 315.442C170.033 315.629 170.476 315.722 170.989 315.722C171.671 315.722 172.207 315.54 172.599 315.176C173.001 314.821 173.201 314.341 173.201 313.734V312.082L173.425 310.584L173.201 309.1V307.35H174.461V313.734C174.461 314.369 174.312 314.924 174.013 315.4C173.724 315.876 173.313 316.249 172.781 316.52C172.259 316.791 171.652 316.926 170.961 316.926ZM170.961 313.888C170.355 313.888 169.809 313.743 169.323 313.454C168.847 313.165 168.469 312.768 168.189 312.264C167.909 311.751 167.769 311.177 167.769 310.542C167.769 309.907 167.909 309.343 168.189 308.848C168.469 308.344 168.847 307.947 169.323 307.658C169.809 307.359 170.355 307.21 170.961 307.21C171.484 307.21 171.946 307.313 172.347 307.518C172.749 307.723 173.066 308.013 173.299 308.386C173.542 308.75 173.673 309.179 173.691 309.674V311.438C173.663 311.923 173.528 312.353 173.285 312.726C173.052 313.09 172.735 313.375 172.333 313.58C171.932 313.785 171.475 313.888 170.961 313.888ZM171.213 312.698C171.624 312.698 171.983 312.609 172.291 312.432C172.609 312.255 172.851 312.007 173.019 311.69C173.187 311.363 173.271 310.985 173.271 310.556C173.271 310.127 173.183 309.753 173.005 309.436C172.837 309.109 172.599 308.857 172.291 308.68C171.983 308.493 171.619 308.4 171.199 308.4C170.779 308.4 170.411 308.493 170.093 308.68C169.776 308.857 169.524 309.109 169.337 309.436C169.16 309.753 169.071 310.122 169.071 310.542C169.071 310.962 169.16 311.335 169.337 311.662C169.524 311.989 169.776 312.245 170.093 312.432C170.42 312.609 170.793 312.698 171.213 312.698ZM176.311 314V307.35H177.571V314H176.311ZM177.571 310.206L177.095 309.996C177.095 309.147 177.291 308.47 177.683 307.966C178.075 307.462 178.639 307.21 179.377 307.21C179.713 307.21 180.016 307.271 180.287 307.392C180.557 307.504 180.809 307.695 181.043 307.966L180.217 308.82C180.077 308.671 179.923 308.563 179.755 308.498C179.587 308.433 179.391 308.4 179.167 308.4C178.7 308.4 178.317 308.549 178.019 308.848C177.72 309.147 177.571 309.599 177.571 310.206ZM184.791 314.14C184.128 314.14 183.531 313.991 182.999 313.692C182.467 313.384 182.047 312.969 181.739 312.446C181.431 311.923 181.277 311.331 181.277 310.668C181.277 310.015 181.426 309.427 181.725 308.904C182.033 308.381 182.444 307.971 182.957 307.672C183.48 307.364 184.063 307.21 184.707 307.21C185.323 307.21 185.864 307.35 186.331 307.63C186.807 307.91 187.176 308.297 187.437 308.792C187.708 309.287 187.843 309.847 187.843 310.472C187.843 310.565 187.838 310.668 187.829 310.78C187.82 310.883 187.801 311.004 187.773 311.144H182.159V310.094H187.101L186.639 310.5C186.639 310.052 186.56 309.674 186.401 309.366C186.242 309.049 186.018 308.806 185.729 308.638C185.44 308.461 185.09 308.372 184.679 308.372C184.25 308.372 183.872 308.465 183.545 308.652C183.218 308.839 182.966 309.1 182.789 309.436C182.612 309.772 182.523 310.169 182.523 310.626C182.523 311.093 182.616 311.503 182.803 311.858C182.99 312.203 183.256 312.474 183.601 312.67C183.946 312.857 184.343 312.95 184.791 312.95C185.164 312.95 185.505 312.885 185.813 312.754C186.13 312.623 186.401 312.427 186.625 312.166L187.437 312.992C187.12 313.365 186.728 313.65 186.261 313.846C185.804 314.042 185.314 314.14 184.791 314.14ZM191.331 314.14C190.958 314.14 190.603 314.093 190.267 314C189.94 313.897 189.637 313.757 189.357 313.58C189.077 313.393 188.834 313.174 188.629 312.922L189.441 312.11C189.684 312.409 189.964 312.633 190.281 312.782C190.598 312.922 190.953 312.992 191.345 312.992C191.737 312.992 192.04 312.927 192.255 312.796C192.47 312.656 192.577 312.465 192.577 312.222C192.577 311.979 192.488 311.793 192.311 311.662C192.143 311.522 191.924 311.41 191.653 311.326C191.382 311.233 191.093 311.144 190.785 311.06C190.486 310.967 190.202 310.85 189.931 310.71C189.66 310.57 189.436 310.379 189.259 310.136C189.091 309.893 189.007 309.571 189.007 309.17C189.007 308.769 189.105 308.423 189.301 308.134C189.497 307.835 189.768 307.607 190.113 307.448C190.468 307.289 190.892 307.21 191.387 307.21C191.91 307.21 192.372 307.303 192.773 307.49C193.184 307.667 193.52 307.938 193.781 308.302L192.969 309.114C192.782 308.871 192.549 308.685 192.269 308.554C191.998 308.423 191.69 308.358 191.345 308.358C190.981 308.358 190.701 308.423 190.505 308.554C190.318 308.675 190.225 308.848 190.225 309.072C190.225 309.296 190.309 309.469 190.477 309.59C190.645 309.711 190.864 309.814 191.135 309.898C191.415 309.982 191.704 310.071 192.003 310.164C192.302 310.248 192.586 310.365 192.857 310.514C193.128 310.663 193.347 310.864 193.515 311.116C193.692 311.368 193.781 311.699 193.781 312.11C193.781 312.735 193.557 313.23 193.109 313.594C192.67 313.958 192.078 314.14 191.331 314.14ZM198.23 314.14C197.576 314.14 196.988 313.986 196.466 313.678C195.943 313.37 195.528 312.955 195.22 312.432C194.912 311.9 194.758 311.307 194.758 310.654C194.758 310.01 194.912 309.431 195.22 308.918C195.528 308.395 195.943 307.98 196.466 307.672C196.988 307.364 197.576 307.21 198.23 307.21C198.874 307.21 199.457 307.364 199.98 307.672C200.512 307.971 200.932 308.381 201.24 308.904C201.548 309.427 201.702 310.01 201.702 310.654C201.702 311.307 201.548 311.9 201.24 312.432C200.932 312.955 200.512 313.37 199.98 313.678C199.457 313.986 198.874 314.14 198.23 314.14ZM198.23 312.922C198.65 312.922 199.023 312.824 199.35 312.628C199.676 312.432 199.933 312.166 200.12 311.83C200.306 311.485 200.4 311.093 200.4 310.654C200.4 310.225 200.302 309.842 200.106 309.506C199.919 309.17 199.662 308.909 199.336 308.722C199.018 308.526 198.65 308.428 198.23 308.428C197.81 308.428 197.436 308.526 197.11 308.722C196.783 308.909 196.526 309.17 196.34 309.506C196.153 309.842 196.06 310.225 196.06 310.654C196.06 311.093 196.153 311.485 196.34 311.83C196.526 312.166 196.783 312.432 197.11 312.628C197.436 312.824 197.81 312.922 198.23 312.922ZM205.235 314.14C204.862 314.14 204.507 314.093 204.171 314C203.845 313.897 203.541 313.757 203.261 313.58C202.981 313.393 202.739 313.174 202.533 312.922L203.345 312.11C203.588 312.409 203.868 312.633 204.185 312.782C204.503 312.922 204.857 312.992 205.249 312.992C205.641 312.992 205.945 312.927 206.159 312.796C206.374 312.656 206.481 312.465 206.481 312.222C206.481 311.979 206.393 311.793 206.215 311.662C206.047 311.522 205.828 311.41 205.557 311.326C205.287 311.233 204.997 311.144 204.689 311.06C204.391 310.967 204.106 310.85 203.835 310.71C203.565 310.57 203.341 310.379 203.163 310.136C202.995 309.893 202.911 309.571 202.911 309.17C202.911 308.769 203.009 308.423 203.205 308.134C203.401 307.835 203.672 307.607 204.017 307.448C204.372 307.289 204.797 307.21 205.291 307.21C205.814 307.21 206.276 307.303 206.677 307.49C207.088 307.667 207.424 307.938 207.685 308.302L206.873 309.114C206.687 308.871 206.453 308.685 206.173 308.554C205.903 308.423 205.595 308.358 205.249 308.358C204.885 308.358 204.605 308.423 204.409 308.554C204.223 308.675 204.129 308.848 204.129 309.072C204.129 309.296 204.213 309.469 204.381 309.59C204.549 309.711 204.769 309.814 205.039 309.898C205.319 309.982 205.609 310.071 205.907 310.164C206.206 310.248 206.491 310.365 206.761 310.514C207.032 310.663 207.251 310.864 207.419 311.116C207.597 311.368 207.685 311.699 207.685 312.11C207.685 312.735 207.461 313.23 207.013 313.594C206.575 313.958 205.982 314.14 205.235 314.14Z" fill="#6C6C6C"/>
<path d="M276 286.25V275.75" stroke="#49AA5E" stroke-width="1.5" stroke-linecap="round" stroke-linejoin="round"/>
<path d="M270.75 281L276 275.75L281.25 281" stroke="#49AA5E" stroke-width="1.5" stroke-linecap="round" stroke-linejoin="round"/>
<path d="M292.864 290V273.128H296.08V290H292.864ZM289.552 275.96V273.128H295.84V275.96H289.552ZM304.485 290.24C303.285 290.24 302.245 290.032 301.365 289.616C300.501 289.2 299.821 288.616 299.325 287.864C298.845 287.112 298.604 286.264 298.604 285.32C298.604 284.536 298.757 283.824 299.061 283.184C299.365 282.544 299.797 282.008 300.357 281.576C300.933 281.128 301.605 280.816 302.373 280.64L302.301 281.432C301.661 281.272 301.117 280.992 300.669 280.592C300.221 280.192 299.885 279.72 299.661 279.176C299.437 278.616 299.325 278.04 299.325 277.448C299.325 276.536 299.541 275.736 299.973 275.048C300.421 274.36 301.029 273.824 301.797 273.44C302.581 273.056 303.477 272.864 304.485 272.864C305.493 272.864 306.381 273.056 307.149 273.44C307.917 273.824 308.517 274.36 308.949 275.048C309.397 275.736 309.621 276.536 309.621 277.448C309.621 278.04 309.509 278.616 309.285 279.176C309.061 279.72 308.725 280.192 308.277 280.592C307.845 280.992 307.301 281.272 306.645 281.432L306.573 280.64C307.357 280.816 308.029 281.128 308.589 281.576C309.149 282.008 309.581 282.544 309.885 283.184C310.189 283.824 310.341 284.536 310.341 285.32C310.341 286.264 310.101 287.112 309.621 287.864C309.141 288.616 308.461 289.2 307.581 289.616C306.701 290.032 305.669 290.24 304.485 290.24ZM304.485 287.384C305.013 287.384 305.485 287.28 305.901 287.072C306.317 286.848 306.637 286.544 306.861 286.16C307.101 285.776 307.221 285.344 307.221 284.864C307.221 284.368 307.101 283.936 306.861 283.568C306.637 283.184 306.317 282.888 305.901 282.68C305.485 282.456 305.013 282.344 304.485 282.344C303.941 282.344 303.461 282.456 303.045 282.68C302.645 282.888 302.325 283.184 302.085 283.568C301.845 283.936 301.725 284.368 301.725 284.864C301.725 285.344 301.845 285.776 302.085 286.16C302.325 286.544 302.645 286.848 303.045 287.072C303.461 287.28 303.941 287.384 304.485 287.384ZM304.485 279.872C305.109 279.872 305.621 279.672 306.021 279.272C306.421 278.872 306.621 278.36 306.621 277.736C306.621 277.096 306.421 276.576 306.021 276.176C305.621 275.776 305.109 275.576 304.485 275.576C303.861 275.576 303.341 275.776 302.925 276.176C302.525 276.576 302.325 277.088 302.325 277.712C302.325 278.352 302.525 278.872 302.925 279.272C303.341 279.672 303.861 279.872 304.485 279.872ZM319.093 290.24C317.765 290.24 316.565 289.88 315.493 289.16C314.421 288.44 313.565 287.424 312.925 286.112C312.301 284.8 311.989 283.272 311.989 281.528C311.989 279.784 312.301 278.264 312.925 276.968C313.549 275.672 314.389 274.664 315.445 273.944C316.517 273.224 317.709 272.864 319.021 272.864C320.365 272.864 321.565 273.224 322.621 273.944C323.693 274.664 324.541 275.68 325.165 276.992C325.789 278.288 326.101 279.816 326.101 281.576C326.101 283.32 325.789 284.848 325.165 286.16C324.541 287.456 323.701 288.464 322.645 289.184C321.589 289.888 320.405 290.24 319.093 290.24ZM319.045 287.288C319.813 287.288 320.477 287.072 321.037 286.64C321.597 286.208 322.029 285.568 322.333 284.72C322.653 283.872 322.813 282.816 322.813 281.552C322.813 280.288 322.653 279.232 322.333 278.384C322.029 277.536 321.589 276.904 321.013 276.488C320.453 276.056 319.789 275.84 319.021 275.84C318.269 275.84 317.613 276.056 317.053 276.488C316.493 276.904 316.053 277.536 315.733 278.384C315.429 279.216 315.277 280.264 315.277 281.528C315.277 282.808 315.429 283.872 315.733 284.72C316.053 285.568 316.493 286.208 317.053 286.64C317.613 287.072 318.277 287.288 319.045 287.288ZM328.313 290L338.777 273.128H341.753L331.289 290H328.313ZM338.705 290.24C338.065 290.24 337.481 290.088 336.953 289.784C336.425 289.464 336.001 289.048 335.681 288.536C335.377 288.008 335.225 287.416 335.225 286.76C335.225 286.104 335.377 285.52 335.681 285.008C336.001 284.496 336.417 284.088 336.929 283.784C337.457 283.464 338.049 283.304 338.705 283.304C339.361 283.304 339.953 283.464 340.481 283.784C341.009 284.088 341.425 284.496 341.729 285.008C342.049 285.52 342.209 286.104 342.209 286.76C342.209 287.416 342.049 288.008 341.729 288.536C341.425 289.048 341.009 289.464 340.481 289.784C339.969 290.088 339.377 290.24 338.705 290.24ZM338.705 287.96C339.057 287.96 339.345 287.848 339.569 287.624C339.793 287.4 339.905 287.112 339.905 286.76C339.905 286.424 339.785 286.144 339.545 285.92C339.321 285.696 339.041 285.584 338.705 285.584C338.369 285.584 338.089 285.696 337.865 285.92C337.657 286.144 337.553 286.424 337.553 286.76C337.553 287.112 337.657 287.4 337.865 287.624C338.089 287.848 338.369 287.96 338.705 287.96ZM331.313 279.824C330.689 279.824 330.105 279.672 329.561 279.368C329.033 279.048 328.617 278.624 328.313 278.096C328.009 277.568 327.857 276.984 327.857 276.344C327.857 275.688 328.009 275.104 328.313 274.592C328.617 274.08 329.033 273.672 329.561 273.368C330.089 273.048 330.673 272.888 331.313 272.888C331.969 272.888 332.561 273.048 333.089 273.368C333.633 273.672 334.057 274.08 334.361 274.592C334.665 275.104 334.817 275.688 334.817 276.344C334.817 276.984 334.657 277.568 334.337 278.096C334.033 278.624 333.617 279.048 333.089 279.368C332.577 279.672 331.985 279.824 331.313 279.824ZM331.313 277.544C331.681 277.544 331.969 277.432 332.177 277.208C332.385 276.984 332.489 276.696 332.489 276.344C332.489 275.992 332.377 275.704 332.153 275.48C331.945 275.256 331.665 275.144 331.313 275.144C330.977 275.144 330.705 275.256 330.497 275.48C330.289 275.704 330.185 275.992 330.185 276.344C330.185 276.696 330.289 276.984 330.497 277.208C330.705 277.432 330.977 277.544 331.313 277.544Z" fill="#49AA5E"/>
<path d="M271.788 314.14C271.069 314.14 270.425 313.981 269.856 313.664C269.296 313.337 268.853 312.894 268.526 312.334C268.199 311.765 268.036 311.121 268.036 310.402V304.284H269.352V310.374C269.352 310.887 269.459 311.331 269.674 311.704C269.889 312.077 270.178 312.367 270.542 312.572C270.915 312.777 271.331 312.88 271.788 312.88C272.264 312.88 272.679 312.777 273.034 312.572C273.398 312.367 273.683 312.077 273.888 311.704C274.103 311.331 274.21 310.892 274.21 310.388V304.284H275.54V310.416C275.54 311.135 275.377 311.774 275.05 312.334C274.723 312.894 274.28 313.337 273.72 313.664C273.16 313.981 272.516 314.14 271.788 314.14ZM270.948 303.29L270.374 302.716L272.194 300.462L273.188 301.456L270.948 303.29ZM277.481 314V304.004H278.741V314H277.481ZM281.606 314V304.564H282.866V314H281.606ZM279.968 308.498V307.35H284.504V308.498H279.968ZM285.752 314V307.35H287.012V314H285.752ZM286.382 306.02C286.149 306.02 285.958 305.945 285.808 305.796C285.659 305.637 285.584 305.441 285.584 305.208C285.584 304.984 285.659 304.797 285.808 304.648C285.958 304.489 286.149 304.41 286.382 304.41C286.616 304.41 286.807 304.489 286.956 304.648C287.106 304.797 287.18 304.984 287.18 305.208C287.18 305.441 287.106 305.637 286.956 305.796C286.807 305.945 286.616 306.02 286.382 306.02ZM288.869 314V307.35H290.129V314H288.869ZM293.363 314V309.982C293.363 309.487 293.209 309.1 292.901 308.82C292.603 308.531 292.225 308.386 291.767 308.386C291.459 308.386 291.184 308.451 290.941 308.582C290.699 308.713 290.503 308.895 290.353 309.128C290.204 309.361 290.129 309.641 290.129 309.968L289.611 309.716C289.611 309.212 289.719 308.773 289.933 308.4C290.157 308.027 290.461 307.737 290.843 307.532C291.226 307.317 291.655 307.21 292.131 307.21C292.598 307.21 293.018 307.313 293.391 307.518C293.774 307.723 294.073 308.013 294.287 308.386C294.511 308.759 294.623 309.203 294.623 309.716V314H293.363ZM297.857 314V309.982C297.857 309.487 297.703 309.1 297.395 308.82C297.097 308.531 296.723 308.386 296.275 308.386C295.967 308.386 295.687 308.451 295.435 308.582C295.193 308.713 294.997 308.895 294.847 309.128C294.698 309.361 294.623 309.641 294.623 309.968L293.909 309.716C293.937 309.203 294.073 308.764 294.315 308.4C294.567 308.027 294.889 307.737 295.281 307.532C295.673 307.317 296.103 307.21 296.569 307.21C297.055 307.21 297.489 307.313 297.871 307.518C298.254 307.723 298.557 308.013 298.781 308.386C299.015 308.759 299.131 309.207 299.131 309.73V314H297.857ZM303.884 314.14C303.231 314.14 302.643 313.986 302.12 313.678C301.597 313.37 301.182 312.955 300.874 312.432C300.566 311.9 300.412 311.307 300.412 310.654C300.412 310.01 300.566 309.431 300.874 308.918C301.182 308.395 301.597 307.98 302.12 307.672C302.643 307.364 303.231 307.21 303.884 307.21C304.528 307.21 305.111 307.364 305.634 307.672C306.166 307.971 306.586 308.381 306.894 308.904C307.202 309.427 307.356 310.01 307.356 310.654C307.356 311.307 307.202 311.9 306.894 312.432C306.586 312.955 306.166 313.37 305.634 313.678C305.111 313.986 304.528 314.14 303.884 314.14ZM303.884 312.922C304.304 312.922 304.677 312.824 305.004 312.628C305.331 312.432 305.587 312.166 305.774 311.83C305.961 311.485 306.054 311.093 306.054 310.654C306.054 310.225 305.956 309.842 305.76 309.506C305.573 309.17 305.317 308.909 304.99 308.722C304.673 308.526 304.304 308.428 303.884 308.428C303.464 308.428 303.091 308.526 302.764 308.722C302.437 308.909 302.181 309.17 301.994 309.506C301.807 309.842 301.714 310.225 301.714 310.654C301.714 311.093 301.807 311.485 301.994 311.83C302.181 312.166 302.437 312.432 302.764 312.628C303.091 312.824 303.464 312.922 303.884 312.922ZM310.89 314.14C310.516 314.14 310.162 314.093 309.826 314C309.499 313.897 309.196 313.757 308.916 313.58C308.636 313.393 308.393 313.174 308.188 312.922L309 312.11C309.242 312.409 309.522 312.633 309.84 312.782C310.157 312.922 310.512 312.992 310.904 312.992C311.296 312.992 311.599 312.927 311.814 312.796C312.028 312.656 312.136 312.465 312.136 312.222C312.136 311.979 312.047 311.793 311.87 311.662C311.702 311.522 311.482 311.41 311.212 311.326C310.941 311.233 310.652 311.144 310.344 311.06C310.045 310.967 309.76 310.85 309.49 310.71C309.219 310.57 308.995 310.379 308.818 310.136C308.65 309.893 308.566 309.571 308.566 309.17C308.566 308.769 308.664 308.423 308.86 308.134C309.056 307.835 309.326 307.607 309.672 307.448C310.026 307.289 310.451 307.21 310.946 307.21C311.468 307.21 311.93 307.303 312.332 307.49C312.742 307.667 313.078 307.938 313.34 308.302L312.528 309.114C312.341 308.871 312.108 308.685 311.828 308.554C311.557 308.423 311.249 308.358 310.904 308.358C310.54 308.358 310.26 308.423 310.064 308.554C309.877 308.675 309.784 308.848 309.784 309.072C309.784 309.296 309.868 309.469 310.036 309.59C310.204 309.711 310.423 309.814 310.694 309.898C310.974 309.982 311.263 310.071 311.562 310.164C311.86 310.248 312.145 310.365 312.416 310.514C312.686 310.663 312.906 310.864 313.074 311.116C313.251 311.368 313.34 311.699 313.34 312.11C313.34 312.735 313.116 313.23 312.668 313.594C312.229 313.958 311.636 314.14 310.89 314.14ZM318.698 314L322.338 305.054L323.64 305.096L320.084 314H318.698ZM317.172 305.46V304.284H323.64V305.096L323.066 305.46H317.172ZM330.744 314.14C330.128 314.14 329.577 313.991 329.092 313.692C328.607 313.384 328.219 312.969 327.93 312.446C327.65 311.923 327.51 311.335 327.51 310.682C327.51 310.029 327.65 309.441 327.93 308.918C328.219 308.395 328.607 307.98 329.092 307.672C329.577 307.364 330.128 307.21 330.744 307.21C331.239 307.21 331.687 307.317 332.088 307.532C332.489 307.737 332.811 308.027 333.054 308.4C333.306 308.764 333.446 309.189 333.474 309.674V311.676C333.446 312.152 333.311 312.577 333.068 312.95C332.825 313.323 332.503 313.617 332.102 313.832C331.701 314.037 331.248 314.14 330.744 314.14ZM330.954 312.95C331.374 312.95 331.738 312.852 332.046 312.656C332.363 312.46 332.611 312.194 332.788 311.858C332.965 311.513 333.054 311.121 333.054 310.682C333.054 310.225 332.961 309.828 332.774 309.492C332.597 309.156 332.349 308.89 332.032 308.694C331.724 308.498 331.36 308.4 330.94 308.4C330.52 308.4 330.151 308.498 329.834 308.694C329.517 308.89 329.265 309.161 329.078 309.506C328.901 309.842 328.812 310.229 328.812 310.668C328.812 311.116 328.901 311.513 329.078 311.858C329.265 312.194 329.517 312.46 329.834 312.656C330.161 312.852 330.534 312.95 330.954 312.95ZM334.244 314H332.97V312.208L333.208 310.584L332.97 308.974V304.004H334.244V314ZM336.078 314V307.35H337.338V314H336.078ZM335.868 306.356L335.294 305.782L337.114 303.528L338.108 304.522L335.868 306.356ZM342.01 314.14C341.403 314.14 340.852 313.991 340.358 313.692C339.863 313.384 339.471 312.969 339.182 312.446C338.902 311.923 338.762 311.335 338.762 310.682C338.762 310.029 338.902 309.441 339.182 308.918C339.471 308.395 339.858 307.98 340.344 307.672C340.838 307.364 341.394 307.21 342.01 307.21C342.514 307.21 342.962 307.317 343.354 307.532C343.755 307.737 344.077 308.027 344.32 308.4C344.562 308.764 344.698 309.189 344.726 309.674V311.676C344.698 312.152 344.562 312.577 344.32 312.95C344.086 313.323 343.769 313.617 343.368 313.832C342.976 314.037 342.523 314.14 342.01 314.14ZM342.22 312.95C342.845 312.95 343.349 312.74 343.732 312.32C344.114 311.891 344.306 311.345 344.306 310.682C344.306 310.225 344.217 309.828 344.04 309.492C343.872 309.147 343.629 308.881 343.312 308.694C342.994 308.498 342.626 308.4 342.206 308.4C341.786 308.4 341.412 308.498 341.086 308.694C340.768 308.89 340.516 309.161 340.33 309.506C340.152 309.842 340.064 310.229 340.064 310.668C340.064 311.116 340.152 311.513 340.33 311.858C340.516 312.194 340.773 312.46 341.1 312.656C341.426 312.852 341.8 312.95 342.22 312.95ZM344.222 314V312.208L344.46 310.584L344.222 308.974V307.35H345.496V314H344.222ZM349.444 314.14C349.071 314.14 348.716 314.093 348.38 314C348.054 313.897 347.75 313.757 347.47 313.58C347.19 313.393 346.948 313.174 346.742 312.922L347.554 312.11C347.797 312.409 348.077 312.633 348.394 312.782C348.712 312.922 349.066 312.992 349.458 312.992C349.85 312.992 350.154 312.927 350.368 312.796C350.583 312.656 350.69 312.465 350.69 312.222C350.69 311.979 350.602 311.793 350.424 311.662C350.256 311.522 350.037 311.41 349.766 311.326C349.496 311.233 349.206 311.144 348.898 311.06C348.6 310.967 348.315 310.85 348.044 310.71C347.774 310.57 347.55 310.379 347.372 310.136C347.204 309.893 347.12 309.571 347.12 309.17C347.12 308.769 347.218 308.423 347.414 308.134C347.61 307.835 347.881 307.607 348.226 307.448C348.581 307.289 349.006 307.21 349.5 307.21C350.023 307.21 350.485 307.303 350.886 307.49C351.297 307.667 351.633 307.938 351.894 308.302L351.082 309.114C350.896 308.871 350.662 308.685 350.382 308.554C350.112 308.423 349.804 308.358 349.458 308.358C349.094 308.358 348.814 308.423 348.618 308.554C348.432 308.675 348.338 308.848 348.338 309.072C348.338 309.296 348.422 309.469 348.59 309.59C348.758 309.711 348.978 309.814 349.248 309.898C349.528 309.982 349.818 310.071 350.116 310.164C350.415 310.248 350.7 310.365 350.97 310.514C351.241 310.663 351.46 310.864 351.628 311.116C351.806 311.368 351.894 311.699 351.894 312.11C351.894 312.735 351.67 313.23 351.222 313.594C350.784 313.958 350.191 314.14 349.444 314.14Z" fill="#6C6C6C"/>
<rect x="236.5" y="0.5" width="109" height="104" rx="11.5" fill="white"/>
<rect x="236.5" y="0.5" width="109" height="104" rx="11.5" stroke="#D1D1D1"/>
<path d="M252 53C252 52.4477 252.448 52 253 52H259C259.552 52 260 52.4477 260 53V89H252V53Z" fill="#F3C332"/>
<path d="M262 43C262 42.4477 262.448 42 263 42H269C269.552 42 270 42.4477 270 43V89H262V43Z" fill="#F3C332"/>
<path d="M272 33C272 32.4477 272.448 32 273 32H279C279.552 32 280 32.4477 280 33V89H272V33Z" fill="#F3C332"/>
<path d="M282 24C282 23.4477 282.448 23 283 23H289C289.552 23 290 23.4477 290 24V89H282V24Z" fill="#F3C332"/>
<path d="M292 30C292 29.4477 292.448 29 293 29H299C299.552 29 300 29.4477 300 30V89H292V30Z" fill="#F3C332"/>
<path d="M302 17C302 16.4477 302.448 16 303 16H309C309.552 16 310 16.4477 310 17V89H302V17Z" fill="#F3C332"/>
<path d="M312 27C312 26.4477 312.448 26 313 26H319C319.552 26 320 26.4477 320 27V89H312V27Z" fill="#EAEAEA"/>
<path d="M322 30C322 29.4477 322.448 29 323 29H329C329.552 29 330 29.4477 330 30V89H322V30Z" fill="#EAEAEA"/>
<defs>
<filter id="filter0_dddd_42_134" x="77" y="68" width="290" height="308" filterUnits="userSpaceOnUse" color-interpolation-filters="sRGB">
<feFlood flood-opacity="0" result="BackgroundImageFix"/>
<feColorMatrix in="SourceAlpha" type="matrix" values="0 0 0 0 0 0 0 0 0 0 0 0 0 0 0 0 0 0 127 0" result="hardAlpha"/>
<feOffset dx="3" dy="4"/>
<feGaussianBlur stdDeviation="6"/>
<feColorMatrix type="matrix" values="0 0 0 0 0.92549 0 0 0 0 0.737255 0 0 0 0 0.301961 0 0 0 0.1 0"/>
<feBlend mode="normal" in2="BackgroundImageFix" result="effect1_dropShadow_42_134"/>
<feColorMatrix in="SourceAlpha" type="matrix" values="0 0 0 0 0 0 0 0 0 0 0 0 0 0 0 0 0 0 127 0" result="hardAlpha"/>
<feOffset dx="13" dy="18"/>
<feGaussianBlur stdDeviation="11"/>
<feColorMatrix type="matrix" values="0 0 0 0 0.92549 0 0 0 0 0.737255 0 0 0 0 0.301961 0 0 0 0.09 0"/>
<feBlend mode="normal" in2="effect1_dropShadow_42_134" result="effect2_dropShadow_42_134"/>
<feColorMatrix in="SourceAlpha" type="matrix" values="0 0 0 0 0 0 0 0 0 0 0 0 0 0 0 0 0 0 127 0" result="hardAlpha"/>
<feOffset dx="29" dy="40"/>
<feGaussianBlur stdDeviation="15"/>
<feColorMatrix type="matrix" values="0 0 0 0 0.92549 0 0 0 0 0.737255 0 0 0 0 0.301961 0 0 0 0.05 0"/>
<feBlend mode="normal" in2="effect2_dropShadow_42_134" result="effect3_dropShadow_42_134"/>
<feColorMatrix in="SourceAlpha" type="matrix" values="0 0 0 0 0 0 0 0 0 0 0 0 0 0 0 0 0 0 127 0" result="hardAlpha"/>
<feOffset dx="52" dy="71"/>
<feGaussianBlur stdDeviation="17.5"/>
<feColorMatrix type="matrix" values="0 0 0 0 0.92549 0 0 0 0 0.737255 0 0 0 0 0.301961 0 0 0 0.01 0"/>
<feBlend mode="normal" in2="effect3_dropShadow_42_134" result="effect4_dropShadow_42_134"/>
<feBlend mode="normal" in="SourceGraphic" in2="effect4_dropShadow_42_134" result="shape"/>
</filter>
</defs>
</svg>
